<svg xmlns="http://www.w3.org/2000/svg" version="1.1" xmlns:xlink="http://www.w3.org/1999/xlink" xmlns:svgjs="http://svgjs.dev/svgjs" width="100%" height="100%" viewBox="0 0 1000 600"><rect width="1000" height="600" x="0" y="0" fill="#99f443"/><g><rect width="333.3333333333333" height="333.3333333333333" rx="13.333333333333334" ry="13.333333333333334" y="177.60329738016216" fill="#ec449b" transform="matrix(0.8044737819994057,0,0,0.8044737819994056,0,23.043842455932975)" x="155.38107299804688"/><path d="M265.11783583691863 407.1578229488196L265.11783583691863 281.8026827619037L248.96830312663823 279.36343042545514L248.96830312663823 269.2699724815299L286.5103592014046 269.2699724815299L353.7440040612177 367.7933369675112L365.04306948177845 389.18586033199716L365.04306948177845 281.8026827619037L347.49166761261955 279.36343042545514L347.49166761261955 269.2699724815299L395.12718163131115 269.2699724815299L395.12718163131115 279.36343042545514L378.9776489210308 281.8026827619037L378.9776489210308 419.2699724815299L363.0243778929934 419.2699724815299L294.3888638743018 318.5316547245206L278.85615359392796 291.896140705829L278.85615359392796 407.3540846310626L298.03372368738593 409.3727762198477L298.03372368738593 419.2699724815299L248.96830312663823 419.2699724815299L248.96830312663823 409.3727762198477L265.11783583691863 407.1578229488196Z " fill="#99f443" transform="matrix(0.8044737819994057,0,0,0.8044737819994056,0,23.043842455932975)"/><path d="M587.9622731734089 405.1513479760388L587.9622731734089 281.62031303582955L572.0477403786067 279.2165554782813L572.0477403786067 269.2699724815299L609.0435032470791 269.2699724815299L675.2987977643286 366.35967428870845L686.4334448412474 387.4409043623787L686.4334448412474 281.62031303582955L669.1374421857854 279.2165554782813L669.1374421857854 269.2699724815299L716.079788051009 269.2699724815299L716.079788051009 279.2165554782813L700.1652552562068 281.62031303582955L700.1652552562068 417.08724757214037L684.444128241897 417.08724757214037L616.8073638639878 317.8148233851192L601.5006778078761 291.56689603258087L601.5006778078761 405.34475375653113L620.3991855017036 407.33407035588147L620.3991855017036 417.08724757214037L572.0477403786067 417.08724757214037L572.0477403786067 407.33407035588147L587.9622731734089 405.1513479760388ZM778.9366667110351 419.26996995198306Q754.8714617383393 419.26996995198306 742.2448272119077 403.54884293767327Q729.590563288263 387.85534532057665 729.590563288263 361.57978857082514L729.590563288263 361.57978857082514Q729.590563288263 344.28378591536307 736.1663598250043 331.15982223909396Q742.7421563617454 318.00822916561157 754.5675383689943 310.8522152873932Q766.392920376243 303.6962014091749 781.5338300490757 303.6962014091749L781.5338300490757 303.6962014091749Q800.0178967847053 303.6962014091749 810.2684031508018 313.9467077752715Q820.5189095168982 324.19721414136797 821.0991268583755 343.28912761568796L821.0991268583755 343.28912761568796Q821.0991268583755 355.41843299228196 819.7176569977155 361.77319435131756L819.7176569977155 361.77319435131756L751.2796401006235 361.77319435131756Q751.6940810588217 381.4729545643279 760.4249705781922 393.5193717492823Q769.183489494776 405.53815953702355 785.2914280700707 405.53815953702355L785.2914280700707 405.53815953702355Q793.2486944674718 405.53815953702355 801.9243251924158 402.6647022268509Q810.572326520147 399.7912449166783 815.3522122380302 395.81261171797775L815.3522122380302 395.81261171797775L819.1098102590252 404.5435012373484Q813.3628956386799 410.51145103539926 802.0072133840556 414.90452519229774Q790.6791605266442 419.26996995198306 778.9366667110351 419.26996995198306L778.9366667110351 419.26996995198306ZM751.4730458811159 351.24639401308906L799.2166442655225 351.24639401308906Q799.8244910042129 347.0743550338961 799.8244910042129 342.6812808769976L799.8244910042129 342.6812808769976Q799.6310852237204 329.7507229812208 794.3538703559996 322.2907857336573Q789.0766554882789 314.83084848609377 777.7486026308675 314.83084848609377L777.7486026308675 314.83084848609377Q766.1995145957505 314.83084848609377 759.3474240868775 323.20255584169286Q752.4677041807911 331.5466338000787 751.4730458811159 351.24639401308906L751.4730458811159 351.24639401308906ZM827.868329175609 316.0189125662613L827.868329175609 306.6801763082003L874.2304576993556 306.6801763082003L874.2304576993556 316.0189125662613L859.1171774237362 318.42267012380955L875.6119275600156 376.91410402415016L881.386471577574 402.16737307701334L887.1610155951325 376.6930688464446L906.2529290694524 306.6801763082003L925.7592835019705 306.6801763082003L945.4314143177676 376.6930688464446L951.2059583353259 402.36077885750575L957.5883490915746 376.91410402415016L973.6962876668692 318.6160759043019L958.5830073912498 316.0189125662613L958.5830073912498 306.6801763082003L998.9495567197325 306.6801763082003L998.9495567197325 316.0189125662613L988.4227563815041 318.6160759043019L957.5883490915746 418.6897526105059L938.8832471782396 418.6897526105059L917.8020171045694 348.45582489455603L912.607690428488 323.78277318317L908.4356514492952 348.45582489455603L888.3490796753001 418.6897526105059L869.8373835424572 418.6897526105059L838.0083179528528 318.42267012380955L827.868329175609 316.0189125662613ZM1020.0307867934027 385.6449935435208L1023.6226084311186 401.17271477733823Q1025.6119250304687 404.15668967636367 1032.0772039783571 406.5328178366987Q1038.5424829262456 408.9365753942469 1045.698496804464 408.9365753942469L1045.698496804464 408.9365753942469Q1057.0541790590883 408.9365753942469 1062.414282118449 404.5435012373484Q1067.7743851778093 400.1780564776631 1067.7743851778093 392.4141958607544L1067.7743851778093 392.4141958607544Q1067.7743851778093 387.05409280139395 1064.403598717799 383.0754596026934Q1061.032812257789 379.09682640399285 1054.9543448708853 376.00233391611465Q1048.8758774839816 372.9354708254496 1037.5478246265704 368.54239666855113L1037.5478246265704 368.54239666855113Q1022.2411385704586 362.7678526509927 1015.1680128838798 354.727698061952Q1008.094887197301 346.65991407569817 1008.094887197301 333.535950399429L1008.094887197301 333.535950399429Q1008.094887197301 324.77743148284515 1013.3721020650219 318.22926434331714Q1018.6493169327427 311.653467806576 1027.9051649991643 307.9787579772206Q1037.1610130655856 304.3040481478653 1048.4890659229968 304.3040481478653L1048.4890659229968 304.3040481478653Q1057.6343964005655 304.3040481478653 1064.5141163066519 305.68551800852515Q1071.366206815525 307.0669878691851 1075.538245794718 308.4760871270582Q1079.7102847739109 309.8575569877181 1081.119384031784 310.2719979459161L1081.119384031784 310.2719979459161L1081.119384031784 334.91742026008893L1068.99007865519 334.91742026008893L1065.0114454564896 320.2185809426674Q1063.7957519791087 317.8148233851192 1058.6290547002407 316.1294301551141Q1053.4623574213726 314.444036925109 1047.107596062337 314.444036925109L1047.107596062337 314.444036925109Q1038.1556713652608 314.444036925109 1032.6850507170475 318.42267012380955Q1027.2144300688342 322.4013033225101 1027.2144300688342 329.1705056397437L1027.2144300688342 329.1705056397437Q1027.2144300688342 335.13845543779445 1030.0878873790068 339.00657104764224Q1032.9613446891794 342.87468665749 1037.354418846078 345.27844421503823Q1041.7198636057633 347.6545723753733 1049.2903184421796 350.8319530548911L1049.2903184421796 350.8319530548911L1053.2689516408802 352.4344580932566Q1064.403598717799 356.7999028529419 1071.366206815525 360.77853605164245Q1078.328814913251 364.757169250343 1082.9981830422814 371.22244819823135Q1087.667551171312 377.68772714611976 1087.667551171312 387.05409280139395L1087.667551171312 387.05409280139395Q1087.667551171312 401.78056151602857 1076.228980725048 410.51145103539926Q1064.7904102787838 419.26996995198306 1044.8972442852812 419.26996995198306L1044.8972442852812 419.26996995198306Q1035.1716964662353 419.26996995198306 1024.5067491419409 416.5899184223028Q1013.8694312148596 413.9098668926226 1007.100228897626 411.1192977740896L1007.100228897626 411.1192977740896L1007.100228897626 385.6449935435208L1020.0307867934027 385.6449935435208Z " fill="#ec449b" transform="matrix(0.8044737819994057,0,0,0.8044737819994056,0,23.043842455932975)"/></g></svg>